<?xml version="1.0" standalone="no"?>
<!DOCTYPE svg PUBLIC "-//W3C//DTD SVG 20010904//EN"
 "http://www.w3.org/TR/2001/REC-SVG-20010904/DTD/svg10.dtd">
<svg version="1.0" xmlns="http://www.w3.org/2000/svg"
 width="260.000000pt" height="260.000000pt" viewBox="0 0 260.000000 260.000000"
 preserveAspectRatio="xMidYMid meet">
<metadata>
Created by potrace 1.14, written by Peter Selinger 2001-2017
</metadata>
<g transform="translate(0.000000,260.000000) scale(0.100000,-0.100000)"
fill="#000000" stroke="none">
<path d="M1535 2321 c-124 -31 -190 -141 -163 -271 l8 -35 -236 -115 c-130
-63 -243 -120 -252 -127 -10 -7 98 43 238 111 226 110 256 122 268 108 6 -9
12 -19 12 -23 0 -4 -99 -97 -219 -206 -121 -109 -218 -200 -216 -202 2 -2 104
87 226 198 172 157 224 199 235 190 14 -11 20 -2 -213 -316 -45 -62 -80 -113
-75 -113 4 0 74 93 156 205 82 113 150 205 151 205 1 0 17 -7 35 -17 36 -18
107 -23 155 -10 l30 7 95 -184 c55 -107 98 -179 102 -172 4 6 8 7 8 3 0 -4
-16 -24 -35 -44 -63 -65 -72 -157 -21 -233 34 -52 90 -80 159 -80 l54 0 84
-164 c58 -113 88 -162 97 -158 9 3 10 7 3 11 -5 4 -44 78 -85 166 l-76 160 31
24 c95 74 87 232 -13 299 -33 21 -52 26 -97 25 -31 0 -64 -2 -74 -4 -14 -3
-39 34 -117 177 l-100 181 44 45 c125 130 51 337 -129 361 -22 3 -53 2 -70 -2z
m333 -756 c-3 -3 -9 2 -12 12 -6 14 -5 15 5 6 7 -7 10 -15 7 -18z"/>
<path d="M465 1289 c-122 -201 -142 -229 -160 -224 -11 4 -47 9 -80 11 -50 4
-67 1 -99 -18 -148 -87 -144 -293 7 -364 66 -30 108 -30 174 1 39 18 60 36 83
71 16 27 30 57 30 67 0 18 5 19 48 13 26 -3 81 -8 122 -10 69 -5 67 -4 -25 9
-55 7 -109 14 -120 14 -16 1 -21 9 -23 36 -1 20 -11 54 -23 77 l-21 41 24 22
c12 12 102 93 198 180 96 87 177 163 179 169 2 6 -16 -7 -40 -30 -24 -22 -117
-107 -207 -189 -160 -145 -164 -148 -182 -129 -17 18 -14 25 122 247 77 126
138 230 136 232 -2 2 -66 -100 -143 -226z"/>
<path d="M602 1103 c-111 -64 -201 -118 -198 -120 3 -4 383 212 401 228 20 19
-7 5 -203 -108z"/>
<path d="M770 815 c58 -7 123 -13 145 -13 22 1 -7 6 -65 13 -58 7 -123 13
-145 13 -22 -1 7 -6 65 -13z"/>
<path d="M970 794 c35 -8 521 -55 537 -52 10 2 -103 16 -252 31 -246 25 -329
31 -285 21z"/>
<path d="M1580 730 c30 -5 73 -8 95 -8 35 1 33 2 -15 8 -30 5 -73 8 -95 8 -35
-1 -33 -2 15 -8z"/>
<path d="M1875 699 c88 -11 171 -18 185 -16 28 2 -293 38 -325 36 -11 -1 52
-10 140 -20z"/>
</g>
</svg>
